<?xml version="1.0" encoding="utf-8"?>
<!-- Generator: Adobe Illustrator 16.0.0, SVG Export Plug-In . SVG Version: 6.00 Build 0)  -->
<!DOCTYPE svg PUBLIC "-//W3C//DTD SVG 1.1//EN" "http://www.w3.org/Graphics/SVG/1.1/DTD/svg11.dtd">
<svg version="1.1" id="Layer_1" xmlns="http://www.w3.org/2000/svg" xmlns:xlink="http://www.w3.org/1999/xlink" x="0px" y="0px"
	 width="580.423px" height="164.926px" viewBox="0 0 580.423 164.926" enable-background="new 0 0 580.423 164.926"
	 xml:space="preserve">
<g>
	<path fill="#F5C216" d="M29.263,22.079C49.767,3.737,79.488-3.895,109.041,6.068c9.063,3.057,18.042,7.449,26.885,12.938
		l-10.917,17.55c-7.589-4.711-15.12-8.421-22.52-10.917c-21.691-7.314-43.435-2.073-58.655,11.013L29.263,22.079z"/>
	<path fill="#85C341" d="M137.321,147.168c-9.246,5.298-18.547,9.503-27.884,12.328C56.149,175.623,2.52,138.071,2.52,82.32
		c0-0.899,0.018,0.355,0.053-1.537c0.394-20.774,8.297-39.098,20.814-52.869l14.562,14.562
		c-8.892,10.126-14.467,23.47-14.754,38.631c-0.019,0.977,0.027-0.604,0.027,1.214c0,42.209,40.11,69.505,80.23,57.363
		c7.812-2.363,15.69-5.936,23.598-10.467L137.321,147.168z"/>
	<path fill-rule="evenodd" clip-rule="evenodd" fill="#B9D97F" d="M58.299,62.826c-4.12,5.357-6.571,12.065-6.571,19.345
		c0,17.545,14.227,31.772,31.771,31.772c7.413,0,14.231-2.54,19.638-6.795l14.689,13.313c-9.104,8.168-21.134,13.14-34.327,13.14
		c-28.398,0-51.428-23.03-51.428-51.43c0-12.708,4.614-24.341,12.257-33.316L58.299,62.826z"/>
	<path fill-rule="evenodd" clip-rule="evenodd" fill="#FAF17B" d="M83.5,30.742c13.313,0,25.445,5.061,34.578,13.363l-14.787,13.214
		c-5.43-4.33-12.308-6.919-19.791-6.919c-7.28,0-13.988,2.452-19.345,6.571L50.183,43C59.159,35.357,70.792,30.742,83.5,30.742"/>
</g>
<g>
	<path fill="#114C8F" d="M172.675,68.085c-0.597,0.271-1.243,0.576-1.952,0.898c-0.694,0.322-1.34,0.611-1.904,0.882
		c-0.565,0.254-0.969,0.458-1.178,0.56c-0.452,0.237-0.871,0.678-1.242,1.288c-0.372,0.627-0.581,1.526-0.597,2.679v9.562
		c-0.017,1.153-0.388,2.085-1.082,2.831c-0.71,0.729-1.597,1.119-2.695,1.136c-1.048-0.017-1.904-0.407-2.598-1.136
		c-0.693-0.746-1.048-1.678-1.081-2.831V31.977c0.032-1.102,0.387-2.018,1.081-2.729c0.694-0.73,1.549-1.119,2.598-1.136
		c1.098,0.017,1.985,0.406,2.695,1.136c0.694,0.712,1.065,1.628,1.082,2.729v15.969l5.034-2.441
		c0.452-0.186,0.872-0.594,1.243-1.204c0.37-0.61,0.58-1.508,0.597-2.661V30.755c-0.017-1.643-0.387-3.152-1.13-4.491
		c-0.725-1.357-1.727-2.442-2.969-3.255c-1.259-0.813-2.662-1.254-4.228-1.305h-4.26c-1.63,0.017-3.097,0.423-4.405,1.237
		c-1.307,0.813-2.355,1.898-3.129,3.255c-0.759,1.356-1.162,2.882-1.178,4.56v54.52c0.016,1.678,0.419,3.204,1.178,4.56
		c0.774,1.355,1.823,2.441,3.129,3.254c1.308,0.797,2.775,1.22,4.405,1.238h4.26c1.565-0.085,2.969-0.543,4.228-1.357
		c1.242-0.812,2.244-1.88,2.969-3.22c0.743-1.338,1.113-2.831,1.13-4.475V68.085z"/>
	<path fill="#114C8F" d="M279.567,51.405c-0.113,0.983-0.516,1.814-1.178,2.458c-0.678,0.644-1.517,0.983-2.501,1h-3.679V29.23
		h3.679c0.984,0.017,1.823,0.356,2.501,1.001c0.662,0.643,1.065,1.456,1.178,2.457V51.405z M265.335,22.416v69.676
		c0,0.17,0.048,0.391,0.145,0.628c0.097,0.221,0.274,0.44,0.565,0.61c0.274,0.187,0.678,0.271,1.227,0.288h4.938v-31.94h4.163
		c2.227-0.017,4.066-0.542,5.535-1.542c1.453-1.017,2.549-2.424,3.26-4.204c0.726-1.78,1.081-3.832,1.081-6.154V31.366
		c-0.016-1.678-0.436-3.187-1.259-4.543c-0.807-1.338-1.872-2.408-3.195-3.205c-1.339-0.779-2.792-1.186-4.357-1.202H265.335z"/>
	<path fill="#114C8F" d="M341.049,37.876c0.467-0.237,0.888-0.678,1.29-1.305c0.403-0.61,0.612-1.509,0.646-2.662v-2.746
		c-0.018-1.662-0.404-3.187-1.146-4.595c-0.759-1.423-1.759-2.576-3.034-3.457c-1.258-0.882-2.678-1.356-4.243-1.408h-4.356
		c-1.63,0.018-3.1,0.475-4.405,1.339c-1.308,0.882-2.357,2.018-3.131,3.459c-0.759,1.423-1.162,2.966-1.177,4.662v7.324
		c-0.018,0.017,0,0.508,0.048,1.475c0.063,0.966,0.306,2.305,0.742,4.001c0.436,1.678,1.21,3.628,2.308,5.814l8.326,16.377
		c0.016,0.017,0.177,0.322,0.468,0.915c0.307,0.611,0.645,1.391,1.032,2.357s0.742,2.001,1.033,3.119
		c0.29,1.119,0.451,2.204,0.467,3.272v8.138c-0.031,1.152-0.387,2.085-1.08,2.831c-0.694,0.729-1.549,1.118-2.598,1.136
		c-1.049-0.034-1.904-0.407-2.599-1.136c-0.693-0.729-1.049-1.628-1.081-2.729V71.647c-0.597,0.288-1.258,0.593-1.968,0.914
		c-0.727,0.34-1.373,0.645-1.97,0.917c-0.58,0.254-0.983,0.424-1.193,0.508c-0.469,0.237-0.888,0.678-1.291,1.306
		c-0.404,0.61-0.613,1.509-0.645,2.662v7.323c0.048,1.645,0.451,3.137,1.192,4.476c0.743,1.34,1.744,2.408,3.002,3.221
		c1.258,0.814,2.663,1.272,4.228,1.356h4.356c1.63-0.017,3.099-0.441,4.405-1.238c1.308-0.813,2.356-1.898,3.131-3.254
		c0.758-1.356,1.161-2.882,1.179-4.561v-9.053c0.031-0.017,0-0.508-0.05-1.475c-0.063-0.966-0.307-2.305-0.742-4
		c-0.435-1.679-1.193-3.628-2.308-5.815l-8.325-16.479c-0.017-0.017-0.179-0.322-0.468-0.916c-0.291-0.577-0.646-1.356-1.033-2.306
		c-0.388-0.95-0.742-1.983-1.033-3.085c-0.29-1.119-0.451-2.205-0.468-3.255v-6.815c0.032-1.153,0.388-2.085,1.081-2.832
		c0.694-0.729,1.55-1.119,2.599-1.136c1.049,0.017,1.903,0.407,2.598,1.136c0.693,0.746,1.049,1.678,1.08,2.832v8.239
		c0.63-0.288,1.309-0.594,2.018-0.932c0.71-0.34,1.355-0.645,1.937-0.916C340.451,38.182,340.839,37.978,341.049,37.876"/>
	<path fill="#114C8F" d="M403.98,22.416h-27.689c-0.598,0.017-1.098,0.237-1.501,0.66c-0.403,0.424-0.613,0.95-0.63,1.576v4.985
		h9.779v62.455c0,0.17,0.048,0.391,0.145,0.61c0.098,0.238,0.274,0.458,0.565,0.627c0.274,0.187,0.677,0.271,1.227,0.288h4.937
		V31.366c0.05-0.476,0.243-0.881,0.55-1.204c0.307-0.339,0.71-0.509,1.194-0.525h5.421c1.098-0.034,1.952-0.238,2.533-0.627
		c0.582-0.391,0.969-0.831,1.146-1.306L403.98,22.416z"/>
	<path fill="#114C8F" d="M442.999,87.922c-1.049-0.068-1.904-0.475-2.598-1.221c-0.694-0.729-1.049-1.644-1.082-2.746V32.079
		c0.033-1.103,0.388-2.018,1.082-2.746c0.693-0.747,1.549-1.153,2.598-1.221h1.065c1.048,0.017,1.903,0.407,2.598,1.136
		c0.693,0.746,1.048,1.678,1.081,2.832v51.876c-0.016,1.152-0.388,2.085-1.081,2.831c-0.694,0.729-1.55,1.118-2.598,1.136H442.999z
		 M441.063,21.703c-1.63,0.018-3.099,0.424-4.405,1.238c-1.308,0.814-2.355,1.899-3.131,3.255c-0.758,1.356-1.161,2.881-1.178,4.56
		v54.624c0.049,1.645,0.469,3.137,1.243,4.492c0.79,1.339,1.823,2.424,3.13,3.221c1.291,0.797,2.743,1.221,4.341,1.238h5.325
		c1.564-0.084,2.969-0.525,4.228-1.322c1.259-0.796,2.259-1.865,3.001-3.187c0.742-1.323,1.146-2.798,1.194-4.442V30.755
		c-0.017-1.644-0.403-3.136-1.146-4.475c-0.759-1.339-1.759-2.408-3.033-3.222c-1.26-0.813-2.68-1.271-4.244-1.356H441.063z"/>
	<path fill="#114C8F" d="M512.804,22.416h-6.971v40.992l-7.165-37.026c-0.112-0.695-0.306-1.339-0.597-1.933
		c-0.274-0.594-0.759-1.085-1.42-1.457c-0.678-0.374-1.646-0.56-2.921-0.576h-3.195v71.202h6.971V53.846l7.456,35.195
		c0.064,0.373,0.177,0.813,0.322,1.322c0.145,0.509,0.372,1,0.694,1.492c0.322,0.509,0.774,0.917,1.355,1.255
		c0.58,0.321,1.339,0.491,2.275,0.508h3.194V22.416z"/>
	<path fill="#114C8F" d="M558.891,86.396V61.678c0.017-0.474,0.178-0.881,0.5-1.203c0.307-0.339,0.694-0.509,1.146-0.525h2.905
		c1.098-0.017,1.92-0.237,2.484-0.627c0.565-0.39,0.968-0.831,1.194-1.306c0.097-0.22,0.291-0.645,0.532-1.272
		c0.259-0.609,0.533-1.288,0.84-2.051c0.307-0.746,0.597-1.44,0.854-2.067h-10.456V31.468c0-0.525,0.161-0.933,0.452-1.254
		c0.307-0.305,0.693-0.475,1.193-0.475h5.615c1.098-0.033,1.953-0.254,2.533-0.678c0.582-0.423,0.969-0.881,1.146-1.356l2.324-5.288
		H554.05c-0.598,0.017-1.081,0.218-1.469,0.593c-0.387,0.389-0.598,0.864-0.661,1.44v69.168h15.491
		c1.097-0.017,1.951-0.237,2.532-0.627c0.598-0.39,1.017-0.83,1.242-1.305c0.098-0.221,0.291-0.644,0.533-1.238
		c0.259-0.593,0.532-1.271,0.839-2c0.307-0.729,0.598-1.424,0.855-2.051H558.891z"/>
	<polygon fill-rule="evenodd" clip-rule="evenodd" fill="#D92A27" points="205.453,57.048 179.303,99.523 244.678,87.708 
		228.401,19.364 219.596,32.458 230.536,75.891 205.187,81 220.13,55.133 	"/>
</g>
<path fill="#1F1A17" d="M576.228,119.972c0.286-0.148,0.544-0.425,0.792-0.818c0.247-0.382,0.375-0.946,0.395-1.667v-1.722
	c-0.01-1.041-0.247-1.998-0.701-2.879c-0.466-0.893-1.079-1.615-1.86-2.167c-0.772-0.553-1.643-0.85-2.603-0.882h-2.671
	c-0.999,0.011-1.899,0.297-2.701,0.84c-0.801,0.552-1.443,1.264-1.919,2.167c-0.465,0.893-0.712,1.859-0.723,2.922v4.59
	c-0.01,0.01,0,0.319,0.03,0.925c0.04,0.605,0.188,1.445,0.455,2.507c0.267,1.052,0.741,2.274,1.415,3.644l5.104,10.263
	c0.01,0.011,0.108,0.201,0.287,0.573c0.188,0.384,0.396,0.872,0.633,1.478s0.455,1.254,0.634,1.955
	c0.178,0.701,0.276,1.381,0.287,2.05v5.101c-0.021,0.722-0.238,1.307-0.664,1.774c-0.425,0.456-0.949,0.701-1.592,0.711
	c-0.644-0.021-1.168-0.255-1.594-0.711c-0.425-0.457-0.644-1.021-0.663-1.711v-7.777c-0.365,0.181-0.771,0.372-1.206,0.574
	c-0.445,0.212-0.841,0.402-1.207,0.573c-0.356,0.16-0.604,0.266-0.732,0.319c-0.287,0.148-0.544,0.425-0.792,0.817
	c-0.246,0.383-0.376,0.945-0.396,1.669v4.589c0.03,1.031,0.277,1.966,0.732,2.806c0.455,0.839,1.068,1.508,1.841,2.019
	c0.771,0.51,1.632,0.796,2.591,0.85h2.672c0.999-0.011,1.899-0.276,2.701-0.775c0.802-0.511,1.443-1.19,1.919-2.04
	c0.465-0.85,0.712-1.806,0.722-2.858v-5.673c0.021-0.012,0-0.319-0.029-0.925c-0.04-0.605-0.188-1.445-0.455-2.507
	c-0.268-1.052-0.731-2.274-1.415-3.645l-5.104-10.327c-0.01-0.011-0.109-0.202-0.287-0.574c-0.178-0.361-0.396-0.85-0.634-1.445
	c-0.236-0.596-0.454-1.243-0.632-1.934c-0.179-0.701-0.277-1.381-0.288-2.04v-4.271c0.02-0.722,0.238-1.307,0.663-1.774
	c0.426-0.457,0.95-0.701,1.594-0.711c0.643,0.01,1.167,0.255,1.592,0.711c0.426,0.467,0.644,1.053,0.664,1.774v5.164
	c0.385-0.18,0.801-0.372,1.236-0.584c0.435-0.212,0.83-0.404,1.187-0.574C575.861,120.163,576.099,120.036,576.228,119.972
	 M542.036,110.282h-4.273v25.691l-4.394-23.205c-0.068-0.435-0.188-0.839-0.366-1.211c-0.168-0.372-0.464-0.679-0.87-0.914
	c-0.415-0.234-1.009-0.351-1.79-0.361h-1.96v44.624h4.274v-24.925l4.571,22.056c0.038,0.234,0.108,0.511,0.197,0.829
	c0.09,0.319,0.229,0.627,0.426,0.936c0.198,0.318,0.475,0.573,0.83,0.786c0.356,0.202,0.822,0.308,1.395,0.318h1.96V110.282z
	 M499.238,151.335c-0.644-0.042-1.168-0.297-1.593-0.764c-0.426-0.458-0.644-1.031-0.664-1.722v-32.512
	c0.021-0.691,0.238-1.265,0.664-1.721c0.425-0.467,0.949-0.722,1.593-0.765h0.653c0.642,0.01,1.166,0.255,1.592,0.711
	c0.426,0.467,0.643,1.053,0.664,1.774v32.512c-0.011,0.722-0.238,1.307-0.664,1.774c-0.426,0.456-0.95,0.701-1.592,0.711H499.238z
	 M498.051,109.836c-0.999,0.011-1.899,0.266-2.701,0.776c-0.801,0.509-1.444,1.19-1.919,2.04c-0.465,0.85-0.713,1.807-0.723,2.858
	v34.232c0.029,1.03,0.287,1.966,0.762,2.816c0.485,0.839,1.118,1.519,1.92,2.019c0.791,0.499,1.682,0.765,2.661,0.775h3.265
	c0.96-0.054,1.819-0.329,2.592-0.828c0.772-0.5,1.386-1.169,1.841-1.998c0.454-0.828,0.701-1.754,0.732-2.784V115.51
	c-0.011-1.03-0.248-1.966-0.703-2.805c-0.465-0.84-1.078-1.509-1.859-2.019c-0.772-0.509-1.643-0.796-2.603-0.85H498.051z
	 M464.81,110.282v43.667c0.02,0.106,0.06,0.244,0.128,0.393c0.07,0.139,0.188,0.277,0.356,0.383c0.178,0.117,0.435,0.17,0.761,0.181
	h3.029v-42.839c0-0.265-0.06-0.53-0.169-0.807c-0.118-0.267-0.297-0.5-0.555-0.691c-0.247-0.18-0.583-0.277-0.998-0.287H464.81z
	 M445.637,110.282h-16.978c-0.366,0.01-0.673,0.149-0.92,0.415c-0.247,0.266-0.377,0.594-0.386,0.988v3.124h5.995v39.141
	c0,0.106,0.03,0.244,0.089,0.383c0.06,0.148,0.168,0.287,0.347,0.393c0.168,0.117,0.415,0.17,0.751,0.181h3.028v-39.014
	c0.029-0.297,0.147-0.552,0.336-0.754c0.188-0.213,0.435-0.319,0.732-0.33h3.323c0.674-0.021,1.198-0.149,1.554-0.394
	c0.356-0.245,0.594-0.52,0.703-0.817L445.637,110.282z M408.299,138.906c-0.365,0.169-0.762,0.36-1.197,0.563
	c-0.426,0.201-0.821,0.383-1.167,0.553c-0.347,0.159-0.594,0.287-0.723,0.35c-0.276,0.149-0.534,0.426-0.763,0.809
	c-0.227,0.394-0.355,0.956-0.365,1.679v5.992c-0.01,0.722-0.237,1.307-0.662,1.774c-0.436,0.456-0.979,0.701-1.652,0.711
	c-0.644-0.01-1.168-0.255-1.594-0.711c-0.425-0.468-0.643-1.053-0.662-1.774v-32.576c0.02-0.69,0.237-1.265,0.662-1.71
	c0.426-0.457,0.95-0.701,1.594-0.711c0.673,0.01,1.217,0.255,1.652,0.711c0.425,0.446,0.652,1.021,0.662,1.71v10.009l3.087-1.53
	c0.277-0.117,0.534-0.372,0.763-0.754c0.226-0.383,0.355-0.945,0.365-1.668v-6.821c-0.01-1.03-0.237-1.976-0.692-2.815
	c-0.445-0.851-1.059-1.53-1.82-2.041c-0.772-0.51-1.633-0.786-2.593-0.818h-2.611c-0.999,0.011-1.899,0.266-2.701,0.776
	c-0.801,0.509-1.444,1.19-1.92,2.04c-0.464,0.85-0.711,1.807-0.722,2.858v34.168c0.011,1.053,0.258,2.009,0.722,2.858
	c0.476,0.85,1.119,1.529,1.92,2.04c0.802,0.499,1.702,0.765,2.701,0.775h2.611c0.96-0.054,1.82-0.34,2.593-0.85
	c0.762-0.511,1.375-1.18,1.82-2.019c0.455-0.84,0.683-1.774,0.692-2.806V138.906z M372.861,110.282h-4.274v38.568
	c-0.02,0.69-0.237,1.253-0.662,1.71c-0.426,0.457-0.951,0.69-1.594,0.713h-0.653c-0.633-0.022-1.156-0.256-1.563-0.713
	s-0.623-1.02-0.633-1.71v-38.568h-3.027c-0.337,0.01-0.613,0.138-0.842,0.372c-0.236,0.244-0.366,0.542-0.405,0.903v38.121
	c0.01,1.053,0.258,1.987,0.723,2.806c0.475,0.828,1.107,1.477,1.898,1.954c0.792,0.468,1.683,0.712,2.662,0.723h3.266v-0.063
	c0.938-0.032,1.8-0.287,2.562-0.755c0.771-0.467,1.385-1.104,1.84-1.912s0.692-1.721,0.703-2.752V110.282z M328.104,131.382v-16.829
	h2.255c0.386,0,0.742,0.075,1.069,0.223c0.336,0.16,0.603,0.404,0.811,0.744c0.207,0.33,0.307,0.776,0.316,1.328v11.985
	c-0.01,0.669-0.109,1.2-0.316,1.572c-0.208,0.372-0.475,0.626-0.811,0.764c-0.327,0.149-0.684,0.224-1.069,0.212H328.104z
	 M336.83,154.906v-17.085c0.01-0.021,0-0.19-0.011-0.53c-0.01-0.341-0.049-0.755-0.138-1.244c-0.079-0.478-0.238-0.944-0.455-1.401
	c-0.218-0.446-0.524-0.796-0.94-1.031c0.425-0.127,0.752-0.394,0.97-0.808c0.218-0.404,0.365-0.851,0.445-1.338
	c0.078-0.479,0.129-0.903,0.129-1.254c0.01-0.35,0.01-0.531,0-0.552v-13.77c-0.011-1.051-0.248-1.997-0.723-2.847
	c-0.465-0.839-1.099-1.508-1.88-2.009c-0.781-0.488-1.662-0.744-2.622-0.754h-7.775v44.624h4.274v-19.188h2.255
	c0.386-0.012,0.742,0.085,1.069,0.265c0.336,0.17,0.603,0.479,0.811,0.894c0.207,0.425,0.307,0.988,0.316,1.71v16.319H336.83z
	 M306.141,110.282h-16.977c-0.366,0.01-0.673,0.149-0.92,0.415c-0.247,0.266-0.375,0.594-0.385,0.988v3.124h5.995v39.141
	c0,0.106,0.03,0.244,0.089,0.383c0.06,0.148,0.168,0.287,0.346,0.393c0.168,0.117,0.416,0.17,0.752,0.181h3.027v-39.014
	c0.03-0.297,0.148-0.552,0.336-0.754c0.188-0.213,0.435-0.319,0.732-0.33h3.324c0.673-0.021,1.197-0.149,1.553-0.394
	s0.594-0.52,0.702-0.817L306.141,110.282z M267.557,119.972c0.287-0.148,0.544-0.425,0.791-0.818
	c0.248-0.382,0.376-0.946,0.396-1.667v-1.722c-0.01-1.041-0.248-1.998-0.703-2.879c-0.465-0.893-1.078-1.615-1.859-2.167
	c-0.772-0.553-1.643-0.85-2.602-0.882h-2.671c-0.999,0.011-1.899,0.297-2.701,0.84c-0.801,0.552-1.445,1.264-1.92,2.167
	c-0.465,0.893-0.712,1.859-0.722,2.922v4.59c-0.01,0.01,0,0.319,0.03,0.925c0.039,0.605,0.188,1.445,0.455,2.507
	c0.267,1.052,0.742,2.274,1.415,3.644l5.104,10.263c0.01,0.011,0.109,0.201,0.287,0.573c0.188,0.384,0.396,0.872,0.633,1.478
	s0.455,1.254,0.633,1.955c0.178,0.701,0.277,1.381,0.287,2.05v5.101c-0.02,0.722-0.238,1.307-0.663,1.774
	c-0.425,0.456-0.95,0.701-1.593,0.711c-0.643-0.021-1.167-0.255-1.593-0.711c-0.425-0.457-0.643-1.021-0.663-1.711v-7.777
	c-0.366,0.181-0.771,0.372-1.208,0.574c-0.444,0.212-0.84,0.402-1.207,0.573c-0.355,0.16-0.604,0.266-0.732,0.319
	c-0.287,0.148-0.544,0.425-0.792,0.817c-0.247,0.383-0.376,0.945-0.396,1.669v4.589c0.03,1.031,0.277,1.966,0.732,2.806
	c0.455,0.839,1.068,1.508,1.84,2.019c0.771,0.51,1.632,0.796,2.592,0.85h2.671c1-0.011,1.9-0.276,2.701-0.775
	c0.801-0.511,1.444-1.19,1.919-2.04c0.465-0.85,0.712-1.806,0.722-2.858v-5.673c0.02-0.012,0-0.319-0.03-0.925
	c-0.04-0.605-0.188-1.445-0.455-2.507c-0.267-1.052-0.732-2.274-1.415-3.645l-5.104-10.327c-0.01-0.011-0.109-0.202-0.287-0.574
	c-0.178-0.361-0.396-0.85-0.633-1.445c-0.237-0.596-0.455-1.243-0.633-1.934c-0.178-0.701-0.277-1.381-0.287-2.04v-4.271
	c0.02-0.722,0.238-1.307,0.663-1.774c0.426-0.457,0.95-0.701,1.593-0.711c0.644,0.01,1.168,0.255,1.593,0.711
	c0.425,0.467,0.643,1.053,0.663,1.774v5.164c0.386-0.18,0.801-0.372,1.237-0.584c0.435-0.212,0.831-0.404,1.187-0.574
	C267.191,120.163,267.428,120.036,267.557,119.972z M233.366,110.282h-4.274v25.691l-4.393-23.205
	c-0.069-0.435-0.188-0.839-0.366-1.211c-0.168-0.372-0.465-0.679-0.871-0.914c-0.416-0.234-1.009-0.351-1.791-0.361h-1.959v44.624
	h4.274v-24.925l4.571,22.056c0.04,0.234,0.108,0.511,0.198,0.829c0.089,0.319,0.228,0.627,0.426,0.936
	c0.198,0.318,0.475,0.573,0.831,0.786c0.356,0.202,0.821,0.308,1.395,0.318h1.959V110.282z M190.567,151.335
	c-0.643-0.042-1.167-0.297-1.592-0.764c-0.426-0.458-0.644-1.031-0.663-1.722v-32.512c0.02-0.691,0.237-1.265,0.663-1.721
	c0.425-0.467,0.949-0.722,1.592-0.765h0.653c0.643,0.01,1.167,0.255,1.593,0.711c0.425,0.467,0.643,1.053,0.662,1.774v32.512
	c-0.01,0.722-0.237,1.307-0.662,1.774c-0.426,0.456-0.95,0.701-1.593,0.711H190.567z M189.38,109.836
	c-0.999,0.011-1.899,0.266-2.701,0.776c-0.801,0.509-1.444,1.19-1.919,2.04c-0.465,0.85-0.712,1.807-0.722,2.858v34.232
	c0.03,1.03,0.287,1.966,0.762,2.816c0.484,0.839,1.118,1.519,1.919,2.019c0.792,0.499,1.682,0.765,2.661,0.775h3.265
	c0.959-0.054,1.82-0.329,2.592-0.828c0.771-0.5,1.385-1.169,1.84-1.998c0.456-0.828,0.703-1.754,0.732-2.784V115.51
	c-0.01-1.03-0.248-1.966-0.703-2.805c-0.465-0.84-1.078-1.509-1.859-2.019c-0.772-0.509-1.643-0.796-2.602-0.85H189.38z
	 M161.956,138.906c-0.365,0.169-0.761,0.36-1.197,0.563c-0.426,0.201-0.821,0.383-1.167,0.553c-0.346,0.159-0.594,0.287-0.722,0.35
	c-0.277,0.149-0.534,0.426-0.762,0.809c-0.227,0.394-0.356,0.956-0.366,1.679v5.992c-0.01,0.722-0.238,1.307-0.663,1.774
	c-0.436,0.456-0.98,0.701-1.652,0.711c-0.643-0.01-1.167-0.255-1.593-0.711c-0.425-0.468-0.643-1.053-0.662-1.774v-32.576
	c0.02-0.69,0.237-1.265,0.662-1.71c0.426-0.457,0.95-0.701,1.593-0.711c0.672,0.01,1.217,0.255,1.652,0.711
	c0.425,0.446,0.653,1.021,0.663,1.71v10.009l3.086-1.53c0.277-0.117,0.535-0.372,0.763-0.754c0.227-0.383,0.355-0.945,0.365-1.668
	v-6.821c-0.01-1.03-0.237-1.976-0.692-2.815c-0.445-0.851-1.059-1.53-1.821-2.041c-0.771-0.51-1.632-0.786-2.591-0.818h-2.612
	c-1,0.011-1.899,0.266-2.701,0.776c-0.801,0.509-1.444,1.19-1.919,2.04c-0.465,0.85-0.712,1.807-0.722,2.858v34.168
	c0.01,1.053,0.257,2.009,0.722,2.858c0.475,0.85,1.118,1.529,1.919,2.04c0.802,0.499,1.702,0.765,2.701,0.775h2.612
	c0.959-0.054,1.82-0.34,2.591-0.85c0.762-0.511,1.376-1.18,1.821-2.019c0.455-0.84,0.682-1.774,0.692-2.806V138.906z"/>
</svg>
