<?xml version="1.0" encoding="utf-8"?>
<!-- Generator: Adobe Illustrator 16.0.0, SVG Export Plug-In . SVG Version: 6.00 Build 0)  -->
<!DOCTYPE svg PUBLIC "-//W3C//DTD SVG 1.1//EN" "http://www.w3.org/Graphics/SVG/1.1/DTD/svg11.dtd">
<svg version="1.1" id="Layer_1" xmlns="http://www.w3.org/2000/svg" xmlns:xlink="http://www.w3.org/1999/xlink" x="0px" y="0px"
	 width="1885.574px" height="321.667px" viewBox="0 0 1885.574 321.667" enable-background="new 0 0 1885.574 321.667"
	 xml:space="preserve">
<g>
	<g>
		<path fill="#0A9CBF" d="M356.459,322.141c-22.491,0-41.311-9.11-56.456-27.333c-15.152-18.222-22.725-40.515-22.725-66.88
			c0-26.363,7.572-48.463,22.725-66.297c15.146-17.834,33.965-26.752,56.456-26.752c23.907,0,43.197,8.724,57.878,26.17
			c14.674,17.447,22.014,39.74,22.014,66.879c0,26.886-7.518,49.307-22.547,67.268C398.769,313.165,379.655,322.141,356.459,322.141
			z M356.459,292.676c15.385,0,26.986-6.07,34.798-18.223c7.812-12.146,11.717-27.654,11.717-46.525
			c0-42.647-15.506-63.971-46.515-63.971c-15.39,0-26.869,5.949-34.441,17.834c-7.579,11.892-11.362,27.273-11.362,46.137
			c0,18.871,3.845,34.379,11.539,46.525C329.885,286.606,341.308,292.676,356.459,292.676z"/>
		<path fill="#0A9CBF" d="M533.281,322.141c-22.492,0-41.311-9.11-56.457-27.333c-15.151-18.222-22.725-40.515-22.725-66.88
			c0-26.363,7.573-48.463,22.725-66.297c15.146-17.834,33.965-26.752,56.457-26.752c23.906,0,43.197,8.724,57.877,26.17
			c14.675,17.447,22.015,39.74,22.015,66.879c0,26.886-7.518,49.307-22.547,67.268C575.591,313.165,556.478,322.141,533.281,322.141
			z M533.281,292.676c15.385,0,26.985-6.07,34.797-18.223c7.812-12.146,11.718-27.654,11.718-46.525
			c0-42.647-15.507-63.971-46.515-63.971c-15.391,0-26.869,5.949-34.442,17.834c-7.578,11.892-11.362,27.273-11.362,46.137
			c0,18.871,3.845,34.379,11.54,46.525C506.706,286.606,518.13,292.676,533.281,292.676z"/>
		<path fill="#0A9CBF" d="M699.451,312.45l-4.616,7.365c-4.261,1.551-8.761,2.326-13.493,2.326c-6.868,0-12.727-0.775-17.576-2.326
			c-4.854-1.551-8.76-4.324-11.717-8.335c-2.963-4.005-5.326-7.755-7.102-11.243c-1.775-3.49-3.019-8.852-3.729-16.09
			c-0.71-7.234-1.126-13.116-1.243-17.641c-0.122-4.52-0.177-11.438-0.177-20.743V21.668l5.681-6.203h19.529l5.681,6.203v224.095
			c0,24.038,1.065,38.129,3.196,42.261c1.653,3.102,4.493,4.652,8.521,4.652c3.313,0,6.746-0.516,10.297-1.551l6.747,5.04V312.45z"
			/>
		<path fill="#445E67" d="M1076.517,322.141c-22.492,0-41.311-9.11-56.457-27.333c-15.151-18.222-22.725-40.515-22.725-66.88
			c0-26.363,7.573-48.463,22.725-66.297c15.146-17.834,33.965-26.752,56.457-26.752c23.906,0,43.196,8.724,57.877,26.17
			c14.674,17.447,22.015,39.74,22.015,66.879c0,26.886-7.518,49.307-22.548,67.268
			C1118.825,313.165,1099.713,322.141,1076.517,322.141z M1076.517,292.676c15.385,0,26.985-6.07,34.797-18.223
			c7.812-12.146,11.718-27.654,11.718-46.525c0-42.647-15.507-63.971-46.515-63.971c-15.391,0-26.869,5.949-34.442,17.834
			c-7.579,11.892-11.362,27.273-11.362,46.137c0,18.871,3.845,34.379,11.54,46.525
			C1049.941,286.606,1061.364,292.676,1076.517,292.676z"/>
		<path fill="#445E67" d="M1183.033,144.959l5.681-6.204h14.559l6.036,5.816l2.13,15.121c15.146-16.539,31.363-24.813,48.646-24.813
			c16.095,0,29.232,5.561,39.413,16.671c10.175,11.116,16.212,25.722,18.108,43.812c0.472,6.203,0.711,17.834,0.711,34.893v81.42
			l-5.682,6.203h-19.529l-5.681-6.203v-82.195c0-15.247-0.355-25.588-1.065-31.016c-2.841-23.518-13.615-35.282-32.312-35.282
			c-15.862,0-29.238,7.754-40.123,23.262v125.23l-5.682,6.203h-19.529l-5.681-6.203V144.959z"/>
		<path fill="#445E67" d="M1393.943,321.754c-15.861,0-31.014-3.102-45.449-9.305l-4.261-7.367v-16.672l6.746-4.652
			c15.623,6.979,29.942,10.469,42.964,10.469c8.993,0,16.211-2.193,21.659-6.592c5.443-4.392,8.167-10.468,8.167-18.222
			c0-7.233-2.075-13.049-6.214-17.446c-4.145-4.393-10.597-8.657-19.352-12.795l-14.558-7.367c-5.21-2.58-9.587-4.906-13.138-6.979
			c-3.551-2.065-7.457-5.039-11.718-8.917c-4.261-3.877-7.518-8.59-9.765-14.151c-2.252-5.555-3.373-11.824-3.373-18.804
			c0-14.212,5.382-25.783,16.156-34.7c10.769-8.917,23.729-13.376,38.88-13.376c15.385,0,29.116,4.138,41.188,12.407l1.421,8.529
			l-8.877,12.795l-7.812,1.162c-8.051-4.906-16.688-7.366-25.921-7.366c-6.868,0-12.372,1.684-16.511,5.04
			c-4.145,3.363-6.214,8.402-6.214,15.121c0,5.428,1.299,9.565,3.906,12.406c2.602,2.848,7.218,5.949,13.848,9.305l17.754,8.53
			c6.392,3.102,11.24,5.688,14.558,7.755c3.313,2.071,7.513,5.3,12.605,9.691c5.088,4.398,8.877,9.693,11.362,15.896
			s3.729,13.443,3.729,21.712c0,17.835-6.158,31.276-18.464,40.321C1424.951,317.235,1410.51,321.754,1393.943,321.754z"/>
		<path fill="#445E67" d="M1550.884,322.141c-22.492,0-41.311-9.11-56.457-27.333c-15.151-18.222-22.725-40.515-22.725-66.88
			c0-26.363,7.573-48.463,22.725-66.297c15.146-17.834,33.965-26.752,56.457-26.752c23.906,0,43.196,8.724,57.877,26.17
			c14.674,17.447,22.015,39.74,22.015,66.879c0,26.886-7.518,49.307-22.548,67.268
			C1593.192,313.165,1574.08,322.141,1550.884,322.141z M1550.884,292.676c15.385,0,26.985-6.07,34.797-18.223
			c7.812-12.146,11.718-27.654,11.718-46.525c0-42.647-15.507-63.971-46.515-63.971c-15.391,0-26.869,5.949-34.442,17.834
			c-7.579,11.892-11.362,27.273-11.362,46.137c0,18.871,3.845,34.379,11.54,46.525
			C1524.309,286.606,1535.731,292.676,1550.884,292.676z"/>
		<path fill="#445E67" d="M1717.054,312.45l-4.616,7.365c-4.261,1.551-8.76,2.326-13.493,2.326c-6.868,0-12.727-0.775-17.576-2.326
			c-4.854-1.551-8.76-4.324-11.717-8.335c-2.963-4.005-5.326-7.755-7.102-11.243c-1.775-3.49-3.019-8.852-3.729-16.09
			c-0.71-7.234-1.126-13.116-1.242-17.641c-0.122-4.52-0.178-11.438-0.178-20.743V21.668l5.681-6.203h19.529l5.682,6.203v224.095
			c0,24.038,1.064,38.129,3.195,42.261c1.653,3.102,4.494,4.652,8.521,4.652c3.313,0,6.747-0.516,10.298-1.551l6.746,5.04V312.45z"
			/>
		<path fill="#445E67" d="M1811.497,322.141c-26.042,0-46.692-8.656-61.96-25.976c-15.269-17.313-22.902-39.801-22.902-67.462
			c0-27.139,7.396-49.56,22.192-67.267c14.791-17.702,34.025-26.558,57.699-26.558c23.906,0,42.548,8.596,55.924,25.783
			c13.371,17.192,20.062,40.001,20.062,68.431l-5.681,5.039h-116.465c0.711,40.068,17.754,60.096,51.131,60.096
			c16.566,0,33.139-2.715,49.711-8.143l6.391,5.041v15.508l-5.326,7.367C1845.701,319.428,1828.773,322.141,1811.497,322.141z
			 M1761.077,211.257h88.058l-0.354-4.652c-0.949-12.922-5.448-23.517-13.493-31.792c-8.05-8.27-17.876-12.407-29.471-12.407
			c-12.783,0-23.08,4.719-30.892,14.151C1767.113,185.996,1762.497,197.561,1761.077,211.257z"/>
	</g>
	<g>
		<polygon fill-rule="evenodd" clip-rule="evenodd" fill="#0D9AC2" points="9.032,4.667 60.666,4.667 60.666,160.629 9.062,215.8 		
			"/>
		<polygon fill-rule="evenodd" clip-rule="evenodd" fill="#0D9AC2" points="7.666,321.667 70.666,321.667 70.666,258.958 
			123.686,205.209 184.397,320.667 241.195,320.667 159.778,160.306 241.943,43.667 186.569,43.667 8.618,247.602 		"/>
	</g>
	<g>
		<path fill-rule="evenodd" clip-rule="evenodd" fill="#4F6169" d="M816.369,268.713l31.337,26.782c0,0,42.713,30.01,101.513-15.669
			c0,0,9.996-8.578,0-18.223c0,0-3.739-1.063-4.876-0.318c-1.138,0.744-0.597-0.703-10.284,5.696c0,0-52.919,29.927-101.578-0.885
			c0,0-10.891-8.292-13.7-3.917C818.78,262.18,816.339,265.495,816.369,268.713z"/>
		<path fill-rule="evenodd" clip-rule="evenodd" fill="#445E67" d="M946.26,74.991c0,0-1.244-3.055,0-10.094
			c0,0,2.857-13.045,1.184-16.346c0,0-1.6-4.904-6.074-6.84c0,0-26.203-14.817-66.155-18.794c-39.953-3.976-0.86,0-0.86,0
			s-81.461-5.221-123.269,78.024c0,0-53.421,109.942,23.571,178.021c0,0,30.978,23.605,59.79,26.381c0,0,4.07-4.718-13.433-18.212
			c0,0-9.944-4.617-10.139-14.177c0,0-61.453-57.494-21.947-172.313C788.927,100.643,831.922-10.648,946.26,74.991z"/>
		<path fill-rule="evenodd" clip-rule="evenodd" fill="#445E67" d="M717.291,220.286c0,0-38.399-173.405,120.019-209.396
			c0,0-101.492-19.563-135.531,109.473C701.778,120.362,689.455,180.248,717.291,220.286z"/>
	</g>
</g>
</svg>
